<svg width="182" height="60" viewBox="0 0 182 60" fill="none" xmlns="http://www.w3.org/2000/svg">
<path d="M24.3025 30.9112L17.386 4.25971C17.008 2.71415 16.2521 1.62095 15.1182 0.980111C13.9844 0.301573 12.2836 0 10.0536 0H3.55278C2.91026 0 2.5701 0.339269 2.5701 1.0555L0 44.5574C0 45.2736 0.302364 45.6129 0.907093 45.6129H8.65518C9.25991 45.6129 9.56228 45.2736 9.56228 44.5574L11.1875 13.7592L19.3513 44.5574C19.5025 45.2736 19.8805 45.6129 20.4852 45.6129H27.8931C28.6112 45.6129 29.0648 45.2736 29.216 44.5574L37.531 13.8723L39.194 44.5574C39.194 45.2736 39.4964 45.6129 40.1767 45.6129H47.8114C48.3783 45.6129 48.6429 45.2736 48.6429 44.5574L46.4885 5.57909C46.4507 3.92044 45.8082 2.60106 44.5988 1.54556C43.3893 0.527752 41.8775 0 40.0633 0H33.4113C32.7687 0 32.353 0.339269 32.164 1.0555L24.3025 30.9112ZM63.3453 26.6515C63.5721 23.1457 65.5753 21.4117 69.3548 21.4117C71.0178 21.4117 72.3407 21.9017 73.3234 22.9195C74.3061 23.9373 74.6462 25.1813 74.3817 26.6515H63.3453ZM63.2698 33.2107H82.0541C82.9612 33.2107 83.4904 32.796 83.6038 32.0044C83.7172 30.685 83.7549 29.2148 83.7549 27.5562C83.7549 23.3342 82.4321 19.9415 79.8242 17.3027C77.2541 14.664 73.7391 13.3823 69.3548 13.3823C64.1769 13.3823 60.0949 15.1163 57.1847 18.6221C54.7658 21.5624 53.5563 25.2944 53.5563 29.7803C53.5563 35.2463 55.2571 39.4683 58.6587 42.484C61.6445 45.1228 65.4619 46.4422 70.1108 46.4422C74.8352 46.4422 78.3502 45.2359 80.7313 42.8233C82.3187 41.1647 83.1124 39.3929 83.1124 37.395C83.1124 36.6034 82.7723 36.1887 82.1297 36.1887C81.8652 36.1887 81.3738 36.3018 80.7313 36.6034C77.7077 37.8851 74.6084 38.5636 71.4336 38.5636C66.6714 38.5636 63.9501 36.7919 63.2698 33.2107ZM98.2306 18.7729C97.3613 15.7572 94.8668 14.287 90.7471 14.287H90.3314C89.6511 14.287 89.2731 14.6263 89.2731 15.3425V44.5574C89.2731 45.2736 89.6511 45.6129 90.3314 45.6129H97.5881C98.3062 45.6129 98.6464 45.2736 98.6464 44.5574V31.6651C98.6464 28.4232 99.0999 26.2368 99.9692 25.1059C100.952 23.7488 102.766 23.0326 105.412 23.0326H107.793C108.511 23.0326 108.851 22.6933 108.851 21.9771V15.3425C108.851 14.6263 108.511 14.287 107.793 14.287H106.81C104.505 14.287 102.766 14.5886 101.594 15.2294C100.385 15.8326 99.2889 17.0389 98.2306 18.7729ZM128.921 37.5835C126.804 37.5835 125.103 36.8672 123.818 35.4725C122.571 34.0777 121.928 32.1929 121.928 29.7803C121.928 24.842 124.272 22.3918 128.921 22.3918C133.381 22.3918 135.61 24.842 135.61 29.7803C135.61 32.9091 134.666 35.0955 132.814 36.3395C131.642 37.1688 130.357 37.5835 128.921 37.5835ZM135.61 41.3531V44.0673C135.61 48.7417 132.511 51.1166 126.388 51.1166C122.306 51.1166 118.905 50.1364 116.184 48.1385C115.692 47.7616 115.314 47.5731 115.012 47.5731C114.256 47.5731 113.878 48.2139 113.878 49.4579C113.878 52.3605 115.352 54.8485 118.338 56.8464C121.135 58.7313 124.574 59.636 128.694 59.636C134.401 59.636 138.634 58.015 141.431 54.8108C143.85 52.1344 145.059 48.5155 145.059 43.9542V15.3425C145.059 14.6263 144.719 14.287 144.001 14.287H143.585C140.07 14.287 137.727 15.3425 136.593 17.4535C134.099 14.664 130.773 13.2692 126.54 13.2692C121.891 13.2692 118.224 15.0786 115.617 18.6975C113.349 21.6378 112.215 25.3321 112.215 29.7049C112.215 34.7939 113.576 38.7898 116.259 41.6924C118.716 44.2935 122.117 45.6129 126.388 45.6129C130.206 45.6129 133.305 44.1804 135.61 41.3531ZM166.678 46.4422C176.845 46.4422 181.91 41.0893 181.91 30.4211V22.3164C181.91 19.5268 181.267 17.4912 180.02 16.2095C178.773 14.9278 176.732 14.287 173.935 14.287H173.519C172.801 14.287 172.461 14.6263 172.461 15.3425V31.2505C172.461 35.5856 170.534 37.7343 166.678 37.7343C162.899 37.7343 161.009 35.5479 161.009 31.1751V22.3164C161.009 19.5268 160.404 17.4912 159.119 16.2095C157.872 14.9278 155.869 14.287 153.11 14.287H152.694C152.014 14.287 151.636 14.6263 151.636 15.3425V29.8557C151.636 40.9008 156.663 46.4422 166.678 46.4422Z" fill="black"/>
</svg>
