<svg width="22" height="22" viewBox="0 0 22 22" fill="none" xmlns="http://www.w3.org/2000/svg">
<g clip-path="url(#clip0_619_281)">
<mask id="mask0_619_281" style="mask-type:luminance" maskUnits="userSpaceOnUse" x="0" y="0" width="22" height="22">
<path d="M22 0H0V22H22V0Z" fill="white"/>
</mask>
<g mask="url(#mask0_619_281)">
<path d="M20.6107 11.0002C20.6107 12.2622 20.3621 13.5119 19.8792 14.6777C19.3962 15.8437 18.6884 16.9032 17.7961 17.7955C16.9037 18.688 15.8442 19.3958 14.6782 19.8787C13.5124 20.3616 12.2627 20.6102 11.0007 20.6102C9.73866 20.6102 8.48903 20.3616 7.32304 19.8787C6.15713 19.3958 5.09769 18.688 4.20534 17.7956C3.31299 16.9032 2.60502 15.8437 2.12213 14.6777C1.63914 13.5119 1.39062 12.2622 1.39062 11.0002C1.39062 9.73818 1.63914 8.48855 2.12213 7.32255C2.60511 6.15665 3.31299 5.09721 4.20534 4.20486C5.09769 3.3125 6.15713 2.60454 7.32304 2.12165C8.48903 1.63866 9.73866 1.39014 11.0007 1.39014C12.2627 1.39014 13.5124 1.63866 14.6782 2.12165C15.8442 2.60463 16.9037 3.3125 17.796 4.20486C18.6884 5.09721 19.3962 6.15665 19.8792 7.32255C20.3621 8.48855 20.6107 9.73818 20.6107 11.0002Z" stroke="black"/>
<path d="M14.8443 11.0002C14.8443 12.2622 14.7448 13.5119 14.5517 14.6777C14.3585 15.8437 14.0754 16.9032 13.7183 17.7955C13.3614 18.688 12.9377 19.3958 12.4713 19.8787C12.0049 20.3616 11.5051 20.6102 11.0003 20.6102C10.4954 20.6102 9.99565 20.3616 9.52927 19.8787C9.0628 19.3958 8.63911 18.688 8.2821 17.7956C7.92518 16.9032 7.64204 15.8437 7.44887 14.6777C7.25569 13.5119 7.15625 12.2622 7.15625 11.0002C7.15625 9.73818 7.25569 8.48855 7.44887 7.32255C7.64204 6.15665 7.92518 5.09721 8.2821 4.20486C8.63911 3.3125 9.06289 2.60454 9.52927 2.12165C9.99565 1.63866 10.4954 1.39014 11.0003 1.39014C11.505 1.39014 12.0049 1.63866 12.4713 2.12165C12.9377 2.60463 13.3614 3.3125 13.7183 4.20486C14.0754 5.09721 14.3585 6.15665 14.5517 7.32255C14.7448 8.48855 14.8443 9.73818 14.8443 11.0002Z" stroke="black"/>
<path d="M1.39062 11H20.6107" stroke="black" stroke-linecap="round"/>
</g>
</g>
<defs>
<clipPath id="clip0_619_281">
<rect width="22" height="22" fill="white"/>
</clipPath>
</defs>
</svg>
