<svg width="32" height="32" viewBox="0 0 32 32" fill="none" xmlns="http://www.w3.org/2000/svg">
<path d="M7.81686 4.75352C7.81686 6.82197 6.06626 8.50927 3.90843 8.50927C1.74826 8.50927 0 6.83311 0 4.75352C0 2.68507 1.74826 1 3.90843 1C6.06626 1 7.81686 2.68507 7.81686 4.75352ZM7.24347 11.1662H0.638923V31.4963H7.24347V11.1662ZM17.8032 11.1662H11.4725V31.4963H17.8056V20.8286C17.8056 17.9667 19.1888 16.2681 21.8286 16.2681C24.2627 16.2681 25.4282 17.9019 25.4282 20.8286V31.494H32V18.6197C32 13.1767 28.7656 10.5443 24.2299 10.5443C19.7037 10.5443 17.7939 13.9077 17.7939 13.9077V11.1662H17.8032Z" fill="white"/>
</svg>
