<svg width="32" height="32" viewBox="0 0 32 32" fill="none" xmlns="http://www.w3.org/2000/svg">
<g clip-path="url(#clip0_748_141)">
<mask id="mask0_748_141" style="mask-type:luminance" maskUnits="userSpaceOnUse" x="0" y="0" width="32" height="32">
<path d="M32 0H0V32H32V0Z" fill="white"/>
</mask>
<g mask="url(#mask0_748_141)">
<mask id="mask1_748_141" style="mask-type:luminance" maskUnits="userSpaceOnUse" x="0" y="0" width="32" height="32">
<path d="M32 0H0V32H32V0Z" fill="black"/>
</mask>
<g mask="url(#mask1_748_141)">
<path d="M8.66406 23.3337H1.9974C1.64377 23.3337 1.30464 23.1932 1.05459 22.9431C0.804538 22.6931 0.664063 22.354 0.664062 22.0003V2.00033C0.664062 1.64671 0.804538 1.30757 1.05459 1.05752C1.30464 0.807468 1.64377 0.666992 1.9974 0.666992H21.9974C22.351 0.666992 22.6902 0.807468 22.9402 1.05752C23.1903 1.30757 23.3307 1.64671 23.3307 2.00033V8.66699" stroke="#F40009" stroke-width="1.2" stroke-linecap="round" stroke-linejoin="round"/>
<path d="M9.9974 8.66699H29.9974C29.9974 8.66699 31.3307 8.66699 31.3307 10.0003V30.0003C31.3307 30.0003 31.3307 31.3337 29.9974 31.3337H9.9974C9.9974 31.3337 8.66406 31.3337 8.66406 30.0003V10.0003C8.66406 10.0003 8.66406 8.66699 9.9974 8.66699Z" stroke="#F40009" stroke-width="1.2" stroke-linecap="round" stroke-linejoin="round"/>
</g>
</g>
</g>
<defs>
<clipPath id="clip0_748_141">
<rect width="32" height="32" fill="white"/>
</clipPath>
</defs>
</svg>
