<svg width="32" height="26" viewBox="0 0 32 26" fill="none" xmlns="http://www.w3.org/2000/svg">
<g clip-path="url(#clip0_822_103)">
<mask id="mask0_822_103" style="mask-type:luminance" maskUnits="userSpaceOnUse" x="0" y="0" width="32" height="26">
<path d="M32 0H0V25.6H32V0Z" fill="white"/>
</mask>
<g mask="url(#mask0_822_103)">
<path d="M31.3307 5.04869C31.1499 4.36771 30.7934 3.74619 30.2968 3.24637C29.8003 2.74655 29.1811 2.38594 28.5013 2.20069C26.0067 1.52734 16 1.52734 16 1.52734C16 1.52734 5.99333 1.52734 3.49733 2.20069C2.81787 2.38628 2.19906 2.747 1.70277 3.24679C1.20648 3.7466 0.850122 4.36794 0.669333 5.04869C0 7.56069 0 12.8007 0 12.8007C0 12.8007 0 18.0407 0.669333 20.5527C0.850115 21.2338 1.20663 21.8552 1.70318 22.3551C2.19974 22.8549 2.8189 23.2154 3.49867 23.4007C5.99333 24.0741 16 24.0741 16 24.0741C16 24.0741 26.0067 24.0741 28.5027 23.4007C29.1826 23.2157 29.8018 22.8551 30.2982 22.3552C30.7949 21.8554 31.1514 21.2338 31.332 20.5527C32 18.0407 32 12.8007 32 12.8007C32 12.8007 32 7.56069 31.3307 5.04869ZM12.7267 17.5581V8.04339L21.0907 12.8007L12.7267 17.5581Z" fill="white"/>
</g>
</g>
<defs>
<clipPath id="clip0_822_103">
<rect width="32" height="25.6" fill="white"/>
</clipPath>
</defs>
</svg>
