<svg width="24" height="24" viewBox="0 0 24 24" fill="none" xmlns="http://www.w3.org/2000/svg">
<g clip-path="url(#clip0_630_2)">
<path d="M17.4697 14.382C17.1727 14.233 15.7117 13.515 15.4397 13.415C15.1667 13.316 14.9687 13.267 14.7697 13.565C14.5727 13.862 14.0027 14.531 13.8297 14.729C13.6567 14.928 13.4827 14.952 13.1857 14.804C12.8887 14.654 11.9307 14.341 10.7957 13.329C9.91269 12.541 9.31569 11.568 9.14269 11.27C8.96969 10.973 9.12469 10.812 9.27269 10.664C9.40669 10.531 9.57069 10.317 9.71869 10.144C9.86769 9.97004 9.91669 9.84604 10.0167 9.64704C10.1157 9.44904 10.0667 9.27604 9.99169 9.12704C9.91669 8.97804 9.32269 7.51504 9.07569 6.92004C8.83369 6.34104 8.58869 6.42004 8.40669 6.41004C8.23369 6.40204 8.03569 6.40004 7.83669 6.40004C7.63869 6.40004 7.31669 6.47404 7.04469 6.77204C6.77269 7.06904 6.00469 7.78804 6.00469 9.25104C6.00469 10.713 7.06969 12.126 7.21769 12.325C7.36669 12.523 9.31369 15.525 12.2947 16.812C13.0037 17.118 13.5567 17.301 13.9887 17.437C14.7007 17.664 15.3487 17.632 15.8597 17.555C16.4307 17.47 17.6177 16.836 17.8657 16.142C18.1137 15.448 18.1137 14.853 18.0387 14.729C17.9647 14.605 17.7677 14.531 17.4697 14.382ZM12.0477 21.785H12.0437C10.2735 21.7852 8.53577 21.3092 7.01269 20.407L6.65169 20.193L2.91069 21.175L3.90869 17.527L3.67369 17.153C2.68413 15.5773 2.16063 13.7537 2.16369 11.893C2.16469 6.44304 6.59969 2.00904 12.0517 2.00904C14.6917 2.00904 17.1737 3.03904 19.0397 4.90704C19.9604 5.82366 20.6901 6.91377 21.1867 8.11428C21.6833 9.3148 21.9368 10.6019 21.9327 11.901C21.9297 17.351 17.4957 21.785 12.0477 21.785ZM20.4607 3.48804C19.3589 2.37896 18.0479 1.49958 16.6038 0.900841C15.1596 0.302105 13.611 -0.00407625 12.0477 4.09776e-05C5.49269 4.09776e-05 0.157688 5.33504 0.154688 11.892C0.154688 13.988 0.701687 16.034 1.74269 17.837L0.0546875 24L6.35969 22.346C8.10328 23.296 10.0571 23.7938 12.0427 23.794H12.0477C18.6017 23.794 23.9377 18.459 23.9407 11.901C23.9455 10.3383 23.6404 8.79014 23.0431 7.34607C22.4458 5.90201 21.5681 4.59071 20.4607 3.48804Z" fill="black"/>
</g>
<defs>
<clipPath id="clip0_630_2">
<rect width="24" height="24" fill="white"/>
</clipPath>
</defs>
</svg>
