<svg width="200" height="200" viewBox="0 0 200 200" fill="none" xmlns="http://www.w3.org/2000/svg">
<path d="M200 99.9864C200 104.329 195.63 108.319 195.088 112.525C194.545 116.787 197.693 121.78 196.607 125.879C195.495 130.031 190.256 132.772 188.628 136.708C186.972 140.67 188.737 146.316 186.592 150.007C184.448 153.698 178.695 155.001 176.089 158.393C173.484 161.786 173.728 167.675 170.688 170.715C167.675 173.728 161.759 173.484 158.366 176.089C155.001 178.695 153.698 184.448 150.007 186.62C146.316 188.737 140.67 186.972 136.708 188.628C132.772 190.256 130.031 195.495 125.879 196.607C121.78 197.693 116.787 194.545 112.525 195.088C108.319 195.63 104.329 200 99.9864 200C95.6439 200 91.6542 195.63 87.4746 195.088C83.1863 194.545 78.1924 197.693 74.0942 196.607C69.9416 195.495 67.2004 190.256 63.265 188.628C59.3025 186.972 53.6572 188.737 49.9661 186.62C46.2749 184.448 44.9722 178.695 41.6067 176.089C38.2141 173.484 32.2975 173.728 29.2848 170.688C26.2451 167.675 26.4893 161.786 23.8838 158.366C21.2783 155.001 15.5245 153.698 13.3804 150.007C11.2363 146.316 13.0004 140.67 11.3448 136.708C9.71638 132.772 4.47822 130.031 3.36545 125.879C2.27982 121.78 5.42814 116.787 4.88533 112.525C4.34252 108.319 0 104.329 0 99.9864C0 95.6439 4.34252 91.6542 4.88533 87.4746C5.42814 83.1863 2.27982 78.1924 3.36545 74.0942C4.47822 69.9416 9.71638 67.2004 11.3448 63.265C13.0004 59.3025 11.2363 53.6572 13.3804 49.9661C15.5245 46.2749 21.2783 44.9722 23.8838 41.6067C26.4893 38.2141 26.2451 32.2975 29.2848 29.2848C32.2975 26.2451 38.2141 26.4893 41.6067 23.8838C44.9722 21.2783 46.2749 15.5245 49.9932 13.3804C53.6572 11.2363 59.3025 13.0004 63.265 11.3448C67.2004 9.71638 69.9416 4.47822 74.0942 3.36545C78.1924 2.27982 83.1863 5.42814 87.4746 4.88533C91.6542 4.34252 95.6439 0 99.9864 0C104.329 0 108.319 4.34252 112.525 4.88533C116.787 5.42814 121.78 2.27982 125.879 3.36545C130.031 4.47822 132.772 9.71638 136.708 11.3448C140.67 13.0004 146.316 11.2363 150.007 13.3804C153.698 15.5245 155.001 21.2783 158.393 23.8838C161.786 26.4893 167.675 26.2451 170.688 29.2848C173.728 32.2975 173.484 38.2141 176.089 41.6067C178.695 44.9722 184.448 46.2749 186.62 49.9932C188.737 53.6572 186.972 59.3025 188.628 63.265C190.256 67.2004 195.495 69.9416 196.607 74.0942C197.693 78.1924 194.545 83.1863 195.088 87.4746C195.63 91.6542 200 95.6439 200 99.9864Z" fill="#FBC22D"/>
<path d="M99.9835 190.474C50.0988 190.474 9.52344 149.871 9.52344 99.9864C9.52344 50.1018 50.0988 9.52637 99.9835 9.52637C149.868 9.52637 190.471 50.1018 190.471 99.9864C190.471 149.871 149.868 190.474 99.9835 190.474ZM99.9835 51.9202C73.467 51.9202 51.9173 73.4699 51.9173 99.9864C51.9173 126.503 73.467 148.08 99.9835 148.08C126.5 148.08 148.077 126.503 148.077 99.9864C148.077 73.4699 126.5 51.9202 99.9835 51.9202Z" fill="#FEFEFE"/>
<path d="M99.9826 185.995C52.5677 185.995 13.9736 147.428 13.9736 99.9865C13.9736 52.5717 52.5677 13.9775 99.9826 13.9775C147.425 13.9775 185.992 52.5717 185.992 99.9865C185.992 147.428 147.425 185.995 99.9826 185.995ZM99.9826 47.4421C71.0234 47.4421 47.4381 71.0273 47.4381 99.9865C47.4381 128.973 71.0234 152.531 99.9826 152.531C128.969 152.531 152.527 128.973 152.527 99.9865C152.527 71.0273 128.969 47.4421 99.9826 47.4421Z" fill="#ED3237"/>
<path d="M99.9859 148.053C126.547 148.053 148.079 126.533 148.079 99.9871C148.079 73.4409 126.547 51.9209 99.9859 51.9209C73.4247 51.9209 51.8926 73.4409 51.8926 99.9871C51.8926 126.533 73.4247 148.053 99.9859 148.053Z" fill="#FBC22D"/>
<path d="M164.714 96.8955C164.985 98.4154 166.125 99.501 167.238 99.311C168.35 99.0939 169.029 97.6826 168.73 96.1627C168.459 94.6428 167.346 93.5572 166.233 93.7472C165.121 93.9643 164.442 95.3756 164.714 96.8955Z" fill="#FEFEFE"/>
<path d="M169.77 96.1631C169.499 97.683 170.177 99.0943 171.29 99.3115C172.403 99.5015 173.543 98.4158 173.814 96.8959C174.086 95.3761 173.407 93.9647 172.294 93.7476C171.182 93.5576 170.069 94.6161 169.77 96.1631Z" fill="#FEFEFE"/>
<path d="M174.115 99.7156C173.627 100.774 173.871 101.941 174.631 102.267C175.418 102.62 176.422 102.05 176.911 100.991C177.399 99.9056 177.155 98.7656 176.395 98.4128C175.608 98.06 174.577 98.6299 174.115 99.7156Z" fill="#FEFEFE"/>
<path d="M164.368 99.6339C164.911 100.665 164.721 101.832 163.988 102.212C163.228 102.619 162.17 102.104 161.627 101.072C161.084 100.014 161.247 98.874 162.007 98.4668C162.767 98.0597 163.825 98.6026 164.368 99.6339Z" fill="#FEFEFE"/>
<path d="M174.271 104.792C175.139 107.153 171.339 105.932 169.358 105.932C167.54 105.932 163.631 107.153 164.446 104.792C165.395 102.105 166.644 100.232 169.358 100.232C172.072 100.232 173.158 101.942 174.271 104.792Z" fill="#FEFEFE"/>
<path d="M54.5806 59.6017L53.1421 58.0818L54.2821 56.9961L47.3069 49.6682L46.1398 50.7538L44.7285 49.261L49.4239 44.7828C50.3466 43.9143 51.2966 43.3986 52.3008 43.2629C53.2778 43.1272 54.3906 43.6701 55.5848 44.9457C56.779 46.1941 57.3218 47.3069 57.2133 48.3111C57.1318 49.3153 56.589 50.2924 55.5848 51.2423L53.9021 52.8436L56.1548 55.2049L57.5932 53.8478L59.0317 55.3677L54.5806 59.6017ZM49.1796 47.8769L52.4908 51.3509L53.495 50.401C54.1192 49.8039 54.4992 49.2339 54.6077 48.6911C54.7434 48.1211 54.472 47.524 53.8207 46.8455C53.0607 46.0584 52.4365 45.7056 51.9208 45.8413C51.378 45.9499 50.7809 46.357 50.1024 47.0084L49.1796 47.8769ZM65.5997 49.6953L64.5684 47.8769L65.464 47.3612L63.1028 34.6593L65.8169 33.1123L75.6147 41.5259L76.4832 41.0374L77.5145 42.8558L72.982 45.4613L71.9507 43.6429L73.3077 42.8558L71.4621 41.2817L67.0925 43.7786L67.5539 46.167L68.8838 45.4071L69.9423 47.1983L65.5997 49.6953ZM66.6311 41.6616L69.8337 39.8161L65.5183 35.9892L66.6311 41.6616ZM81.7485 41.7973L80.69 37.1291L82.8341 36.6135C83.1055 37.7262 83.4855 38.459 84.0011 38.839C84.5168 39.2461 85.2225 39.3275 86.091 39.1104C86.5795 39.0018 86.9595 38.7304 87.3123 38.2962C87.638 37.8891 87.7466 37.4005 87.6109 36.8577C87.4209 35.9349 87.0138 35.365 86.4167 35.175C85.8467 34.9579 84.9511 34.8493 83.7569 34.795C82.5627 34.7408 81.6128 34.5236 80.9342 34.1437C80.2286 33.7365 79.7401 32.9223 79.4415 31.6467C79.143 30.344 79.2787 29.2583 79.8486 28.3627C80.4186 27.4942 81.2599 26.9242 82.3456 26.68C83.6212 26.3814 84.6797 26.6528 85.521 27.467L85.5482 27.4399L85.3039 26.3271L87.3937 25.8386L88.3979 30.2083L86.2267 30.6968C85.9553 29.7469 85.6025 29.1226 85.1411 28.7698C84.6797 28.417 84.0554 28.3355 83.2683 28.4984C82.0199 28.7969 81.5313 29.5297 81.8027 30.7239C81.9656 31.4296 82.2913 31.8367 82.7798 31.9453C83.2412 32.081 84.1369 32.1895 85.4396 32.2981C86.7424 32.4067 87.7466 32.6781 88.4794 33.1666C89.2122 33.628 89.7278 34.4965 90.0264 35.7992C90.2164 36.6406 90.2164 37.4277 90.0264 38.1333C89.8364 38.839 89.4836 39.4361 88.9679 39.9246C88.4522 40.386 87.8551 40.6846 87.1495 40.8746C86.3895 41.0374 85.711 41.0917 85.1682 41.0103C84.6254 40.956 84.0826 40.6574 83.594 40.1689L83.5669 40.196L83.8383 41.3359L81.7485 41.7973ZM95.5088 39.0561L95.3731 34.2522L97.5987 34.1979C97.6258 35.3107 97.8701 36.1249 98.2772 36.6135C98.7114 37.102 99.3899 37.3191 100.286 37.292C100.774 37.292 101.208 37.102 101.643 36.7492C102.05 36.3963 102.267 35.9349 102.24 35.3921C102.213 34.4422 101.941 33.7908 101.398 33.4923C100.883 33.1937 100.041 32.868 98.8743 32.5966C97.7072 32.3252 96.8116 31.9181 96.2145 31.3753C95.6174 30.8596 95.2917 29.9368 95.2645 28.6341C95.2374 27.3042 95.5902 26.2728 96.323 25.5129C97.0558 24.7801 97.9786 24.4001 99.1185 24.3459C100.421 24.3187 101.398 24.7801 102.05 25.7572H102.104L102.077 24.6173L104.221 24.563L104.33 29.0412L102.104 29.0955C102.05 28.0913 101.805 27.3856 101.425 26.9514C101.046 26.5171 100.476 26.3271 99.6613 26.3271C98.3857 26.3814 97.7344 27.0056 97.7886 28.227C97.7886 28.9326 98.0329 29.394 98.4672 29.6112C98.9014 29.8283 99.7428 30.1268 100.991 30.4797C102.267 30.8596 103.19 31.321 103.814 31.9453C104.438 32.5424 104.764 33.4923 104.818 34.8493C104.818 35.6907 104.682 36.4506 104.33 37.1291C104.004 37.7805 103.542 38.2962 102.945 38.649C102.348 39.0018 101.697 39.1918 100.964 39.219C100.177 39.2461 99.5256 39.1647 99.01 38.9747C98.4672 38.7847 98.0058 38.4048 97.6258 37.8348H97.5987L97.6258 39.0018L95.5088 39.0561ZM109.106 38.8933L109.568 36.8306L111.006 37.1834L113.286 27.3042L111.848 26.9785L112.309 24.9701L123.057 27.4399L122.08 31.5924L119.99 31.1039L120.478 28.9598L115.81 27.8742L114.914 31.701L116.733 32.1352L117.167 30.2083L119.094 30.6425L117.791 36.3149L115.864 35.8807L116.299 34.0351L114.48 33.628L113.53 37.7534L118.198 38.839L118.796 36.3149L120.885 36.8034L119.827 41.3631L109.106 38.8933ZM123.599 42.503L124.549 40.6303L125.472 41.1188L134.836 32.2167L137.631 33.6551L135.894 46.4384L136.79 46.8998L135.84 48.7725L131.172 46.3841L132.149 44.5114L133.533 45.2442L133.859 42.8287L129.353 40.5489L127.616 42.2045L129 42.9101L128.051 44.7828L123.599 42.503ZM130.9 38.9747L134.184 40.6574L135.053 34.9579L130.9 38.9747ZM138.527 51.2423L139.992 49.7224L141.132 50.8081L148.135 43.4801L146.968 42.3944L148.379 40.9017L153.4 45.6785C154.35 46.6012 154.92 47.4698 155.083 48.3654C155.246 49.2339 154.757 50.2652 153.617 51.4594C152.939 52.1651 152.233 52.5451 151.446 52.5993C150.686 52.6808 149.98 52.4636 149.329 51.948L149.275 51.9751C149.763 52.5179 149.953 53.0879 149.845 53.685C149.736 54.3092 149.437 55.042 148.949 55.9105L148.08 57.4575L148.976 58.2718L147.51 59.7916L145.095 57.4575L147.103 53.875C147.429 53.3321 147.619 52.8436 147.619 52.4094C147.646 51.9751 147.456 51.568 147.049 51.1609L145.638 49.831L143.005 52.5993L144.118 53.6578L142.679 55.1777L138.527 51.2423ZM149.98 45.2714L147.076 48.3111L148.515 49.6953C149.682 50.8081 150.767 50.8352 151.772 49.8039C152.721 48.7996 152.694 47.8497 151.69 46.8998L149.98 45.2714Z" fill="#FEFEFE"/>
<path d="M26.1906 96.8916C26.462 98.4115 27.6019 99.4971 28.7147 99.3071C29.8275 99.09 30.506 97.6787 30.2346 96.1588C29.936 94.6389 28.8233 93.5533 27.7105 93.7433C26.5977 93.9604 25.9192 95.3717 26.1906 96.8916Z" fill="#FEFEFE"/>
<path d="M31.2726 96.1592C30.9741 97.6791 31.6526 99.0904 32.7654 99.3076C33.8781 99.4975 35.0181 98.4119 35.2895 96.892C35.588 95.3722 34.9095 93.9608 33.7967 93.7437C32.684 93.5537 31.544 94.6122 31.2726 96.1592Z" fill="#FEFEFE"/>
<path d="M35.5868 99.7146C35.0982 100.773 35.3425 101.94 36.1296 102.266C36.8895 102.619 37.9209 102.049 38.3823 100.99C38.8708 99.9046 38.6265 98.7647 37.8666 98.4118C37.0795 98.059 36.0753 98.629 35.5868 99.7146Z" fill="#FEFEFE"/>
<path d="M25.845 99.6329C26.3878 100.664 26.225 101.831 25.4651 102.211C24.7051 102.618 23.6466 102.103 23.1038 101.071C22.561 100.013 22.7238 98.873 23.4838 98.4659C24.2437 98.0588 25.3022 98.6016 25.845 99.6329Z" fill="#FEFEFE"/>
<path d="M35.7508 104.791C36.6464 107.152 32.8196 105.931 30.8383 105.931C29.0199 105.931 25.1116 107.152 25.953 104.791C26.8758 102.104 28.1243 100.231 30.8383 100.231C33.5524 100.231 34.6652 101.941 35.7508 104.791Z" fill="#FEFEFE"/>
<path fill-rule="evenodd" clip-rule="evenodd" d="M84.2505 118.93C84.1419 117.817 84.6033 115.375 84.9561 115.212C84.2776 111.874 81.8892 107.097 80.885 104.084C79.5008 99.8502 78.4966 96.9733 82.4049 95.0734C83.7891 97.6789 88.5116 100.583 93.3698 99.7959C97.468 99.1445 99.0422 96.1319 100.264 92.8479C102.218 87.5826 118.204 91.3009 121.65 93.4721C120.538 94.3678 112.341 96.3762 109.274 105.333C106.804 112.498 109.844 116.406 111.283 119.907C111.825 121.264 112.993 122.594 113.59 123.517C105.42 119.147 102.055 117.682 95.8124 112.253C94.4554 109.431 86.6117 102.917 83.7619 103.623C84.1691 104.437 86.1503 105.468 87.0188 106.065C88.7287 107.178 89.4072 107.884 90.7642 109.187C99.4493 117.736 98.5536 114.588 95.3239 119.473C93.8312 121.698 91.8499 127.642 91.2528 130.329L87.7788 130.248C87.2631 127.778 87.1003 124.82 86.6117 122.431C86.1232 120.016 85.4175 117.41 84.9561 115.158C84.4405 115.809 84.1691 118.089 84.2505 118.93C84.9019 120.179 86.286 128.538 85.9603 130.112L83.3548 130.248C81.3736 133.993 82.2421 138.064 80.8307 140.317H97.3323C97.3052 140.073 97.3323 139.774 97.4137 139.449C97.7123 138.227 98.0108 132.772 98.0108 131.252L92.8541 130.275C93.0984 127.941 94.2654 125.661 94.9439 123.463C95.9481 120.233 97.2509 119.202 98.5265 117.166C101.159 118.767 102.788 121.644 107.673 123.191C112.694 124.928 111.934 124.711 116.548 125.552C118.773 125.96 124.446 129.624 131.937 125.797C138.206 122.621 143.906 114.316 141.816 105.93C138.478 92.5222 126.671 93.5264 124.582 92.8207C122.79 92.2508 121.433 91.3551 119.153 90.7852C117.064 90.2695 114.838 89.8895 113.128 89.0482C114.621 84.2171 114.16 80.526 109.139 78.0019C107.049 76.9706 104.552 76.5092 102.109 77.242C98.7979 78.219 99.2864 79.2775 97.4137 80.9874L94.2383 79.4404C93.8583 76.2378 94.4282 71.5967 95.6224 69.2083C98.2279 69.5069 102.733 70.8368 105.095 71.7595C108.216 73.008 116.819 76.0478 119.941 74.1479C120.972 73.4965 122.166 72.1938 122.573 70.5111C123.713 65.8971 123.225 63.5902 119.316 62.1789C114.648 60.4961 103.575 57.8906 98.9879 60.3604C96.3281 61.7717 94.7539 64.3773 93.8312 67.6884C92.7184 71.7053 92.447 74.5822 92.6912 78.8975C87.3717 78.5176 85.3632 79.6303 82.4592 82.8872C82.432 82.9415 82.3506 83.0229 82.3235 83.0772C82.2692 83.1315 82.1878 83.1858 82.1606 83.2401L81.8078 83.5929C79.6094 82.263 75.7554 79.1418 72.9057 77.7034C67.7761 75.0707 66.3647 75.4235 64.0035 80.3631C62.3208 83.8372 61.1809 87.3383 59.851 91.2194C57.544 98.0589 57.7068 102.51 64.2478 106.011C65.6319 106.771 68.5089 107.911 70.0559 106.717C73.937 103.704 68.8345 84.2986 71.9286 80.4717C73.3399 78.7076 75.3755 80.8788 76.7054 81.693C78.4695 82.7244 79.8537 83.5115 81.265 84.7328C80.6408 89.1025 80.6136 89.5096 81.8078 93.4721C80.0708 95.3448 77.031 95.3177 78.4966 101.126C79.4466 104.953 82.7306 115.239 84.2505 118.93Z" fill="#373435"/>
<path fill-rule="evenodd" clip-rule="evenodd" d="M87.7189 140.318C87.0947 140.291 86.4704 140.264 85.8462 140.237C85.1405 140.21 84.5706 140.237 84.082 140.318H87.7189Z" fill="#B38048"/>
<path fill-rule="evenodd" clip-rule="evenodd" d="M86.6041 122.433C87.0927 124.821 87.2555 127.78 87.7712 130.249L91.2452 130.331C91.8423 127.644 93.8236 121.7 95.3163 119.475C98.5461 114.589 99.4417 117.738 90.7567 109.188C89.3996 107.886 88.7211 107.18 87.0113 106.067C86.1428 105.47 83.9715 104.357 83.5644 103.516C87.2555 102.783 95.9677 112.445 98.9532 115.648C103.757 120.533 106.227 122.569 113.582 123.519C112.985 122.596 111.818 121.266 111.275 119.909C109.837 116.408 106.797 112.499 109.267 105.334C112.334 96.3778 120.53 94.3694 121.643 93.4738C118.087 91.2482 102.21 87.6114 100.256 92.8495C99.0346 96.1336 97.4604 99.1462 93.3622 99.7976C88.504 100.585 83.7815 97.6806 82.3973 95.0751C78.4891 96.9749 79.4933 99.8519 80.8775 104.086C81.9088 107.207 83.4287 111.712 84.6772 115.648C84.7043 115.702 84.7043 115.756 84.7314 115.811C85.5999 118.552 86.3056 120.967 86.6041 122.433Z" fill="#FEFEFE"/>
<path fill-rule="evenodd" clip-rule="evenodd" d="M88.5651 80.4723C80.3958 82.8064 80.5043 93.1742 85.9053 96.5668C92.3106 100.584 100.236 98.1138 99.0415 87.2032C98.5258 82.4807 94.0476 78.9253 88.5651 80.4723Z" fill="#FEFEFE"/>
<path fill-rule="evenodd" clip-rule="evenodd" d="M100.64 89.917C102.242 89.4013 103.517 88.9128 105.363 88.6414C106.883 88.3971 110.628 88.7771 111.578 88.2343C112.446 87.7457 114.482 83.6475 109.461 79.8749C106.53 77.6765 101.889 77.8394 99.9074 80.3635C98.3333 82.3447 98.8218 81.9919 99.7446 84.2989C100.477 86.1987 100.369 87.8272 100.64 89.917Z" fill="#FEFEFE"/>
<path fill-rule="evenodd" clip-rule="evenodd" d="M82.9451 138.444C87.2604 138.607 91.6572 139.448 96.0812 138.987C96.5154 137.114 96.7054 134.291 96.3526 132.337C94.1542 131.876 86.3105 131.604 84.0578 131.957C83.6507 134.101 82.9179 136.137 82.9451 138.444Z" fill="#ED3237"/>
<path fill-rule="evenodd" clip-rule="evenodd" d="M128.078 97.4356C122.08 99.5798 128.892 108.509 134.591 106.582C140.318 104.601 133.777 95.4001 128.078 97.4356Z" fill="#FEFEFE"/>
<path fill-rule="evenodd" clip-rule="evenodd" d="M104.271 76.2376C104.895 75.2605 105.004 74.9077 105.194 73.4692C104.027 72.5736 100.417 71.7051 98.7888 71.7051C98.8159 73.3335 98.1374 75.3691 99.3316 75.939C100.146 76.319 103.403 76.4276 104.271 76.2376Z" fill="#373435"/>
<path fill-rule="evenodd" clip-rule="evenodd" d="M83.918 74.7184L84.3794 77.4596C87.0663 77.4325 88.2876 76.3197 90.4046 75.7769L89.2918 72.1943C87.3106 72.33 85.1122 73.6871 83.918 74.7184Z" fill="#373435"/>
<path fill-rule="evenodd" clip-rule="evenodd" d="M89.8925 87.6908C86.717 88.885 88.7254 93.2547 91.5752 92.0334C94.2079 90.9206 92.688 86.6866 89.8925 87.6908Z" fill="#373435"/>
<path d="M125.172 127.779C134.48 127.779 142.026 120.014 142.026 110.436C142.026 100.857 134.48 93.0928 125.172 93.0928C115.863 93.0928 108.317 100.857 108.317 110.436C108.317 120.014 115.863 127.779 125.172 127.779Z" fill="#373435"/>
<path fill-rule="evenodd" clip-rule="evenodd" d="M136.165 101.751C140.209 105.768 137.712 115.43 130.601 108.346C123.11 100.909 131.252 96.8654 136.165 101.751Z" fill="#FEFEFE"/>
<path d="M101.749 107.612C102.109 107.612 102.4 107.296 102.4 106.906C102.4 106.516 102.109 106.2 101.749 106.2C101.389 106.2 101.098 106.516 101.098 106.906C101.098 107.296 101.389 107.612 101.749 107.612Z" fill="#373435" stroke="#373435" stroke-width="0.649811"/>
<path d="M98.0586 109.159C98.4183 109.159 98.71 108.843 98.71 108.454C98.71 108.064 98.4183 107.748 98.0586 107.748C97.6989 107.748 97.4072 108.064 97.4072 108.454C97.4072 108.843 97.6989 109.159 98.0586 109.159Z" fill="#373435" stroke="#373435" stroke-width="0.649811"/>
<path d="M100.341 112.117C100.865 112.117 101.29 111.643 101.29 111.058C101.29 110.474 100.865 110 100.341 110C99.8159 110 99.3906 110.474 99.3906 111.058C99.3906 111.643 99.8159 112.117 100.341 112.117Z" fill="#373435" stroke="#373435" stroke-width="0.649811"/>
<path d="M86.85 101.588C86.7957 101.696 81.2047 105.225 83.9459 106.717" stroke="#373435" stroke-width="1.48579" stroke-linecap="round" stroke-linejoin="round"/>
<path d="M103.275 86.9048C104.264 86.9048 105.066 86.1029 105.066 85.1136C105.066 84.1243 104.264 83.3223 103.275 83.3223C102.285 83.3223 101.483 84.1243 101.483 85.1136C101.483 86.1029 102.285 86.9048 103.275 86.9048Z" fill="#373435"/>
<path d="M39.3828 147.102L40.957 145.718L41.934 146.803L49.4792 140.045L48.5021 138.96L50.022 137.575L57.3771 145.772L54.2016 148.622L52.7632 147.02L54.3916 145.555L51.189 141.972L48.285 144.578L49.5063 145.962L50.9719 144.659L52.2747 146.125L47.9593 150.006L46.6565 148.54L48.0678 147.292L46.8194 145.908L43.6439 148.73L46.8465 152.313L48.7735 150.576L50.212 152.177L46.7379 155.298L39.3828 147.102ZM59.2498 141.104L55.2059 141.375L54.1745 140.208L57.54 139.204L59.2498 141.104ZM58.4899 165.123C57.4043 164.363 56.6172 163.468 56.1829 162.409C55.7487 161.323 55.6401 160.184 55.8572 158.989C56.0744 157.768 56.59 156.574 57.4043 155.38C58.1913 154.213 59.1413 153.29 60.1997 152.611C61.2311 151.96 62.3439 151.634 63.5109 151.661C64.678 151.689 65.7907 152.069 66.9035 152.828C67.9891 153.561 68.7491 154.484 69.1833 155.543C69.6447 156.628 69.7261 157.768 69.509 158.962C69.2919 160.184 68.7491 161.378 67.9349 162.599C67.1206 163.766 66.1978 164.689 65.1665 165.34C64.108 165.992 63.0224 166.317 61.8825 166.29C60.7426 166.263 59.6027 165.883 58.4899 165.123ZM59.6841 163.386C60.7154 164.092 61.7468 164.228 62.7781 163.739C63.8366 163.278 64.8137 162.382 65.7093 161.052C66.6321 159.695 67.1206 158.447 67.1749 157.307C67.2292 156.167 66.7407 155.244 65.7093 154.538C64.7051 153.86 63.6738 153.724 62.6153 154.213C61.5568 154.674 60.5797 155.57 59.6569 156.927C58.7613 158.257 58.2728 159.478 58.2185 160.645C58.1642 161.785 58.6527 162.708 59.6841 163.386ZM77.6512 166.969L76.3485 171.013L77.9769 171.528C78.8183 171.8 79.4968 171.854 80.0125 171.718C80.501 171.556 80.881 171.067 81.1524 170.226C81.4509 169.357 81.3967 168.76 81.071 168.407C80.7181 168.054 80.121 167.756 79.3068 167.484L77.6512 166.969ZM79.4425 161.351L78.2483 165.096L79.6054 165.53C80.3653 165.775 80.9895 165.829 81.5052 165.693C82.048 165.557 82.428 165.123 82.6723 164.363C82.9165 163.603 82.8623 163.061 82.5094 162.708C82.1566 162.355 81.6138 162.056 80.9081 161.839L79.4425 161.351ZM71.8431 171.746L72.4945 169.764L73.9058 170.199L76.9999 160.564L75.5885 160.129L76.2128 158.148L81.7223 159.939C83.1879 160.401 84.2464 160.944 84.9249 161.595C85.6035 162.246 85.7392 163.278 85.2506 164.743C84.6807 166.562 83.5408 167.322 81.8852 167.05L81.858 167.104C82.618 167.376 83.1608 167.892 83.4865 168.651C83.8393 169.439 83.8665 170.253 83.5951 171.121C83.0251 172.831 82.238 173.781 81.1524 173.971C80.0939 174.134 78.7911 173.971 77.2713 173.483L71.8431 171.746ZM86.6077 176.007L86.9334 173.944L88.4261 174.188L89.9731 164.173L88.4804 163.929L88.7789 161.893L94.3156 162.762L94.0171 164.798L92.5243 164.553L90.9773 174.568L92.4701 174.812L92.1444 176.875L86.6077 176.007ZM107.479 162.518L107.723 167.756L105.389 167.864C105.335 166.806 105.009 165.965 104.439 165.367C103.842 164.743 103.082 164.472 102.159 164.499C100.911 164.58 100.069 165.15 99.5809 166.263C99.0924 167.403 98.8753 168.76 98.9567 170.388C99.011 171.854 99.391 173.021 100.042 173.917C100.721 174.84 101.644 175.274 102.865 175.22C103.625 175.165 104.276 174.867 104.738 174.242C105.226 173.645 105.47 172.885 105.47 171.99L107.94 171.881C107.995 173.103 107.75 174.107 107.262 174.921C106.773 175.708 106.149 176.305 105.335 176.685C104.548 177.065 103.733 177.255 102.838 177.309C100.802 177.391 99.201 176.794 98.0611 175.491C96.9211 174.188 96.2969 172.451 96.2155 170.28C96.1341 168.814 96.2969 167.512 96.6769 166.345C97.0569 165.177 97.6539 164.228 98.4953 163.549C99.3367 162.871 100.395 162.518 101.616 162.436C103.191 162.382 104.385 162.979 105.226 164.255V164.282L105.145 162.626L107.479 162.518ZM112.337 176.251L111.849 174.215L113.26 173.863L110.79 164.038L109.379 164.39L108.863 162.409L114.508 160.998L115.024 162.979L113.314 163.413L114.264 167.213L119.339 165.965L118.389 162.138L116.625 162.599L116.137 160.591L121.836 159.152L122.352 161.161L120.886 161.513L123.329 171.338L124.795 170.986L125.31 173.021L119.611 174.432L119.095 172.424L120.832 171.963L119.828 167.946L114.753 169.221L115.757 173.238L117.467 172.804L117.982 174.84L112.337 176.251ZM134.674 168.977C133.507 169.601 132.34 169.873 131.2 169.791C130.033 169.71 128.974 169.276 127.997 168.543C127.02 167.783 126.179 166.779 125.5 165.53C124.795 164.255 124.415 163.006 124.306 161.785C124.198 160.536 124.415 159.424 124.958 158.392C125.5 157.361 126.369 156.52 127.536 155.895C128.703 155.244 129.843 155 131.01 155.081C132.15 155.19 133.235 155.624 134.213 156.357C135.162 157.117 136.004 158.121 136.709 159.397C137.388 160.672 137.795 161.921 137.904 163.142C137.985 164.363 137.768 165.476 137.252 166.48C136.709 167.484 135.841 168.326 134.674 168.977ZM133.67 167.132C134.755 166.535 135.352 165.666 135.407 164.526C135.461 163.386 135.108 162.111 134.321 160.699C133.534 159.261 132.665 158.257 131.661 157.687C130.684 157.117 129.626 157.117 128.54 157.714C127.454 158.311 126.885 159.179 126.803 160.346C126.749 161.486 127.129 162.762 127.916 164.2C128.676 165.612 129.544 166.589 130.549 167.159C131.553 167.729 132.584 167.729 133.67 167.132ZM138.039 149.164L144.065 157.388L142.735 158.474L135.895 150.929L138.039 149.164ZM144.933 161.975L143.088 159.695L145.177 157.985L147.05 160.265L144.933 161.975ZM144.282 143.356L151.04 150.983L149.818 152.177L142.3 145.31L144.282 143.356ZM152.343 155.461L150.28 153.371L152.207 151.471L154.269 153.561L152.343 155.461ZM149.221 137.467L157.011 144.008L155.979 145.365L147.539 139.692L149.221 137.467ZM158.965 148.269L156.604 146.505L158.232 144.333L160.593 146.098L158.965 148.269Z" fill="#FEFEFE"/>
</svg>
